<?xml version="1.0" encoding="UTF-8" standalone="no"?><svg xmlns="http://www.w3.org/2000/svg" xmlns:xlink="http://www.w3.org/1999/xlink" contentStyleType="text/css" height="306px" preserveAspectRatio="none" style="width:399px;height:306px;background:#FFFFFF;" version="1.1" viewBox="0 0 399 306" width="399px" zoomAndPan="magnify"><defs/><g><line style="stroke:#181818;stroke-width:0.5;stroke-dasharray:5.0,5.0;" x1="18" x2="18" y1="82.6094" y2="224.0156"/><line style="stroke:#181818;stroke-width:0.5;stroke-dasharray:5.0,5.0;" x1="154.5" x2="154.5" y1="82.6094" y2="224.0156"/><line style="stroke:#181818;stroke-width:0.5;stroke-dasharray:5.0,5.0;" x1="372" x2="372" y1="82.6094" y2="224.0156"/><text fill="#000000" font-family="sans-serif" font-size="14" lengthAdjust="spacing" textLength="17" x="7" y="79.5332">A1</text><ellipse cx="18.5" cy="13.5" fill="#008000" rx="8" ry="8" style="stroke:#181818;stroke-width:0.5;"/><path d="M18.5,21.5 L18.5,48.5 M5.5,29.5 L31.5,29.5 M18.5,48.5 L5.5,63.5 M18.5,48.5 L31.5,63.5 " fill="none" style="stroke:#181818;stroke-width:0.5;"/><text fill="#000000" font-family="sans-serif" font-size="14" lengthAdjust="spacing" textLength="17" x="7" y="237.5488">A1</text><ellipse cx="18.5" cy="249.125" fill="#008000" rx="8" ry="8" style="stroke:#181818;stroke-width:0.5;"/><path d="M18.5,257.125 L18.5,284.125 M5.5,265.125 L31.5,265.125 M18.5,284.125 L5.5,299.125 M18.5,284.125 L31.5,299.125 " fill="none" style="stroke:#181818;stroke-width:0.5;"/><text fill="#000000" font-family="sans-serif" font-size="14" lengthAdjust="spacing" textLength="17" x="143" y="79.5332">E1</text><ellipse cx="154.5" cy="49" fill="#E2E2F0" rx="12" ry="12" style="stroke:#181818;stroke-width:0.5;"/><line style="stroke:#181818;stroke-width:0.5;" x1="142.5" x2="166.5" y1="63" y2="63"/><text fill="#000000" font-family="sans-serif" font-size="14" lengthAdjust="spacing" textLength="17" x="143" y="237.5488">E1</text><ellipse cx="154.5" cy="256.625" fill="#E2E2F0" rx="12" ry="12" style="stroke:#181818;stroke-width:0.5;"/><line style="stroke:#181818;stroke-width:0.5;" x1="142.5" x2="166.5" y1="270.625" y2="270.625"/><text fill="#000000" font-family="sans-serif" font-size="14" lengthAdjust="spacing" textLength="17" x="361" y="79.5332">B1</text><path d="M352,37 L352,61 M352,49 L369,49 " fill="none" style="stroke:#181818;stroke-width:0.5;"/><ellipse cx="381" cy="49" fill="#E2E2F0" rx="12" ry="12" style="stroke:#181818;stroke-width:0.5;"/><text fill="#000000" font-family="sans-serif" font-size="14" lengthAdjust="spacing" textLength="17" x="361" y="237.5488">B1</text><path d="M352,244.625 L352,268.625 M352,256.625 L369,256.625 " fill="none" style="stroke:#181818;stroke-width:0.5;"/><ellipse cx="381" cy="256.625" fill="#E2E2F0" rx="12" ry="12" style="stroke:#181818;stroke-width:0.5;"/><polygon fill="#181818" points="142.5,110.9609,152.5,114.9609,142.5,118.9609,146.5,114.9609" style="stroke:#181818;stroke-width:1.0;"/><line style="stroke:#181818;stroke-width:1.0;" x1="18.5" x2="148.5" y1="114.9609" y2="114.9609"/><text fill="#000000" font-family="sans-serif" font-size="13" lengthAdjust="spacing" textLength="112" x="25.5" y="110.1045">Отправляю запрос</text><polygon fill="#181818" points="360.5,141.3125,370.5,145.3125,360.5,149.3125,364.5,145.3125" style="stroke:#181818;stroke-width:1.0;"/><line style="stroke:#181818;stroke-width:1.0;" x1="154.5" x2="366.5" y1="145.3125" y2="145.3125"/><text fill="#000000" font-family="sans-serif" font-size="13" lengthAdjust="spacing" textLength="148" x="161.5" y="140.4561">направляю на обработку</text><polygon fill="#181818" points="165.5,171.6641,155.5,175.6641,165.5,179.6641,161.5,175.6641" style="stroke:#181818;stroke-width:1.0;"/><line style="stroke:#181818;stroke-width:1.0;" x1="159.5" x2="371.5" y1="175.6641" y2="175.6641"/><text fill="#000000" font-family="sans-serif" font-size="13" lengthAdjust="spacing" textLength="194" x="171.5" y="170.8076">Возвращаю обработанный файл</text><polygon fill="#181818" points="29.5,202.0156,19.5,206.0156,29.5,210.0156,25.5,206.0156" style="stroke:#181818;stroke-width:1.0;"/><line style="stroke:#181818;stroke-width:1.0;" x1="23.5" x2="153.5" y1="206.0156" y2="206.0156"/><text fill="#000000" font-family="sans-serif" font-size="13" lengthAdjust="spacing" textLength="102" x="35.5" y="201.1592">Отправляю ответ</text><!--MD5=[86dd1c6726e646c124738c60906f8872]
@startuml
actor A1 #Green
entity E1
Boundary B1


A1 -> E1 : Отправляю запрос
E1 -> B1 : направляю на обработку
B1 -> E1 : Возвращаю обработанный файл
E1 -> A1 : Отправляю ответ

@enduml

PlantUML version 1.2022.7(Mon Aug 22 20:01:30 MSK 2022)
(GPL source distribution)
Java Runtime: Java(TM) SE Runtime Environment
JVM: Java HotSpot(TM) 64-Bit Server VM
Default Encoding: Cp1251
Language: ru
Country: RU
--></g></svg>